<?xml version="1.0" standalone="no"?><!DOCTYPE svg PUBLIC "-//W3C//DTD SVG 1.1//EN" "http://www.w3.org/Graphics/SVG/1.1/DTD/svg11.dtd"><svg t="1627355752297" class="icon" viewBox="0 0 1024 1024" version="1.1" xmlns="http://www.w3.org/2000/svg" p-id="4588" width="128" height="128" xmlns:xlink="http://www.w3.org/1999/xlink"><defs><style type="text/css">@font-face { font-family: "feedback-iconfont"; src: url("//at.alicdn.com/t/font_1031158_1uhr8ri0pk5.eot?#iefix") format("embedded-opentype"), url("//at.alicdn.com/t/font_1031158_1uhr8ri0pk5.woff2") format("woff2"), url("//at.alicdn.com/t/font_1031158_1uhr8ri0pk5.woff") format("woff"), url("//at.alicdn.com/t/font_1031158_1uhr8ri0pk5.ttf") format("truetype"), url("//at.alicdn.com/t/font_1031158_1uhr8ri0pk5.svg#iconfont") format("svg"); }
</style></defs><path d="M150.4 790.9c-25.3 0-50.8-0.1-76.4-0.3-11-0.1-19.9-9.1-19.8-20.2 0.1-11 9-19.8 20-19.8h0.2c52.2 0.4 104.3 0.4 154.7 0 11.1-0.1 20.1 8.8 20.2 19.8 0.1 11-8.8 20.1-19.8 20.2-26.1 0.2-52.5 0.3-79.1 0.3zM204.5 680.9c-44.5 0-89.1-0.1-133.5-0.4-11-0.1-20-9.1-19.9-20.1 0.1-11 9-19.9 20-19.9h0.1c88.8 0.5 178.2 0.5 265.8 0h0.1c11 0 19.9 8.9 20 19.9 0.1 11-8.8 20-19.9 20.1-43.9 0.3-88.2 0.4-132.7 0.4zM229.1 560.9c-53.5 0-107.1-0.1-161.5-0.4-11 0-20-9-19.9-20.1 0-11 9-19.9 20-19.9h0.1c108.8 0.5 214.1 0.5 322 0h0.1c11 0 19.9 8.9 20 19.9 0 11-8.9 20-19.9 20.1-54.1 0.3-107.4 0.4-160.9 0.4z" p-id="4589" fill="#1296db"></path><path d="M980.2 938H44V836c0-11 9-20 20-20s20 9 20 20v62h856.2V389.9L755.7 118.2H268.5l-184.3 273v70.7c0 11-9 20-20 20s-20-9-20-20v-83l203-300.8h529.6l203.3 299.4V938z" p-id="4590" fill="#1296db"></path><path d="M940.6 403.8H69c-11 0-20-9-20-20s9-20 20-20h871.6c11 0 20 9 20 20s-8.9 20-20 20zM775.4 660H575.5c-11 0-20-9-20-20s9-20 20-20h199.9c11 0 20 9 20 20s-9 20-20 20z" p-id="4591" fill="#1296db"></path><path d="M716.1 723.9c-4.9 0-9.9-1.8-13.7-5.5-8-7.6-8.4-20.2-0.8-28.3l48.2-51.1-48.8-48.7c-7.8-7.8-7.8-20.5 0-28.3 7.8-7.8 20.5-7.8 28.3 0l76.3 76.3-74.9 79.4c-4 4.1-9.3 6.2-14.6 6.2zM523.2 403.8c-11 0-20-9-20-20V98.2c0-11 9-20 20-20s20 9 20 20v285.6c0 11-9 20-20 20z" p-id="4592" fill="#1296db"></path></svg>