<?xml version="1.0" standalone="no"?><!DOCTYPE svg PUBLIC "-//W3C//DTD SVG 1.1//EN" "http://www.w3.org/Graphics/SVG/1.1/DTD/svg11.dtd"><svg t="1627359997335" class="icon" viewBox="0 0 1024 1024" version="1.1" xmlns="http://www.w3.org/2000/svg" p-id="17489" width="128" height="128" xmlns:xlink="http://www.w3.org/1999/xlink"><defs><style type="text/css">@font-face { font-family: "feedback-iconfont"; src: url("//at.alicdn.com/t/font_1031158_1uhr8ri0pk5.eot?#iefix") format("embedded-opentype"), url("//at.alicdn.com/t/font_1031158_1uhr8ri0pk5.woff2") format("woff2"), url("//at.alicdn.com/t/font_1031158_1uhr8ri0pk5.woff") format("woff"), url("//at.alicdn.com/t/font_1031158_1uhr8ri0pk5.ttf") format("truetype"), url("//at.alicdn.com/t/font_1031158_1uhr8ri0pk5.svg#iconfont") format("svg"); }
</style></defs><path d="M754 830v40h106V570c0-22.091-17.909-40-40-40h-26c-22.091 0-40 17.909-40 40h66c16.569 0 30 13.431 30 30 0 16.569-13.431 30-30 30h-66v40h66c16.569 0 30 13.431 30 30 0 16.569-13.431 30-30 30h-66v40h66c16.569 0 30 13.431 30 30 0 16.569-13.431 30-30 30h-66z m-98.32 40H694V570c0-25.017 9.187-47.89 24.37-65.426C703.299 489.236 694 468.204 694 445c0-46.944 38.056-85 85-85h56c46.944 0 85 38.056 85 85 0 23.204-9.298 44.236-24.37 59.574C910.812 522.111 920 544.983 920 570v322c0 20.987-17.013 38-38 38H204c-55.228 0-100-44.772-100-100V414c0-71.797 58.203-130 130-130h300c71.797 0 130 58.203 130 130v115c0 16.569-13.431 30-30 30-16.569 0-30-13.431-30-30V414c0-38.66-31.34-70-70-70H234c-38.66 0-70 31.34-70 70v416c0 22.091 17.909 40 40 40h360c22.091 0 40-17.909 40-40V639c0-16.569 13.431-30 30-30 16.569 0 30 13.431 30 30v191c0 14.222-2.969 27.75-8.32 40zM239 94h290c44.183 0 80 35.817 80 80v40c0 22.091-17.909 40-40 40H199c-22.091 0-40-17.909-40-40v-40c0-44.183 35.817-80 80-80z m540 326c-13.807 0-25 11.193-25 25s11.193 25 25 25h56c13.807 0 25-11.193 25-25s-11.193-25-25-25h-56zM219 194h330v-20c0-11.046-8.954-20-20-20H239c-11.046 0-20 8.954-20 20v20z m135 360v-90c0-16.569 13.431-30 30-30 16.569 0 30 13.431 30 30v90h90c16.569 0 30 13.431 30 30 0 16.569-13.431 30-30 30h-90v90c0 16.569-13.431 30-30 30-16.569 0-30-13.431-30-30v-90h-90c-16.569 0-30-13.431-30-30 0-16.569 13.431-30 30-30h90z" fill="#1296db" p-id="17490"></path></svg>