<?xml version="1.0" standalone="no"?><!DOCTYPE svg PUBLIC "-//W3C//DTD SVG 1.1//EN" "http://www.w3.org/Graphics/SVG/1.1/DTD/svg11.dtd"><svg t="1627288858404" class="icon" viewBox="0 0 1024 1024" version="1.1" xmlns="http://www.w3.org/2000/svg" p-id="2130" xmlns:xlink="http://www.w3.org/1999/xlink" width="200" height="200"><defs><style type="text/css">@font-face { font-family: "feedback-iconfont"; src: url("//at.alicdn.com/t/font_1031158_1uhr8ri0pk5.eot?#iefix") format("embedded-opentype"), url("//at.alicdn.com/t/font_1031158_1uhr8ri0pk5.woff2") format("woff2"), url("//at.alicdn.com/t/font_1031158_1uhr8ri0pk5.woff") format("woff"), url("//at.alicdn.com/t/font_1031158_1uhr8ri0pk5.ttf") format("truetype"), url("//at.alicdn.com/t/font_1031158_1uhr8ri0pk5.svg#iconfont") format("svg"); }
</style></defs><path d="M899.2 281.6L521.6 64c0-3.2-396.8 217.6-396.8 217.6-6.4 3.2-9.6 9.6-9.6 16V736c0 6.4 3.2 9.6 9.6 12.8L492.8 960l409.6-211.2c6.4-3.2 6.4-9.6 6.4-12.8V297.6c0-6.4-3.2-12.8-9.6-16zM512 121.6l329.6 185.6-99.2 51.2L416 172.8l96-51.2z m-115.2 67.2l316.8 188.8-67.2 28.8-323.2-172.8 73.6-44.8z m336 217.6v118.4h-32c-3.2 0-9.6 3.2-12.8 6.4l-16 22.4v-112l60.8-35.2z m-278.4 473.6l-281.6-163.2V345.6l281.6 169.6v364.8zM499.2 480L192 300.8l105.6-51.2 316.8 176-115.2 54.4z m352 233.6L512 889.6V521.6l124.8-60.8v134.4c0 6.4 3.2 12.8 9.6 16h6.4c3.2 0 9.6-3.2 9.6-6.4l41.6-48h38.4c3.2 0 9.6-3.2 12.8-6.4 3.2-3.2 3.2-6.4 3.2-12.8V384l86.4-41.6v371.2h6.4z" fill="#1296db" p-id="2131"></path></svg>