<?xml version="1.0" standalone="no"?><!DOCTYPE svg PUBLIC "-//W3C//DTD SVG 1.1//EN" "http://www.w3.org/Graphics/SVG/1.1/DTD/svg11.dtd"><svg t="1627364209647" class="icon" viewBox="0 0 1024 1024" version="1.1" xmlns="http://www.w3.org/2000/svg" p-id="18483" width="32" height="32" xmlns:xlink="http://www.w3.org/1999/xlink"><defs><style type="text/css">@font-face { font-family: "feedback-iconfont"; src: url("//at.alicdn.com/t/font_1031158_1uhr8ri0pk5.eot?#iefix") format("embedded-opentype"), url("//at.alicdn.com/t/font_1031158_1uhr8ri0pk5.woff2") format("woff2"), url("//at.alicdn.com/t/font_1031158_1uhr8ri0pk5.woff") format("woff"), url("//at.alicdn.com/t/font_1031158_1uhr8ri0pk5.ttf") format("truetype"), url("//at.alicdn.com/t/font_1031158_1uhr8ri0pk5.svg#iconfont") format("svg"); }
</style></defs><path d="M468.65893562 141.21142578c24.14245613 0 44.74182105 20.59936491 44.74182106 44.74182105a44.57702653 44.57702653 0 0 1-44.74182106 44.65942415H229.45910644V775.67187508h239.19982918c24.14245613 0 44.74182105 20.51696801 44.74182106 44.65942342 0 24.22485375-20.59936491 44.74182105-44.74182106 44.74182178H185.95324683A45.4010013 45.4010013 0 0 1 141.21142578 820.16650398V185.95324683C141.21142578 161.72839379 160.57482927 141.21142578 185.95324683 141.21142578h282.62329118zM568.85424828 266.86755363c0-37.49084481 44.74182105-55.5358885 70.03784173-29.00390641l232.03124983 236.89270011c15.65551775 15.65551775 15.65551775 41.03393531 0 58.00781283L638.97448763 768.25610359c-25.29602067 25.3784183-70.03784172 7.25097623-70.03784245-29.0039064v-55.61828614a40.70434553 40.70434553 0 0 0-41.0339353-41.03393531H338.1413575a40.70434553 40.70434553 0 0 1-41.0339353-41.03393602V404.63610871c0-22.90649397 18.12744133-41.03393531 41.0339353-41.03393601h189.76135238c22.90649397 0 41.03393531-18.12744133 41.0339353-41.11633293z" p-id="18484"></path></svg>