<?xml version="1.0" standalone="no"?><!DOCTYPE svg PUBLIC "-//W3C//DTD SVG 1.1//EN" "http://www.w3.org/Graphics/SVG/1.1/DTD/svg11.dtd"><svg t="1628225215781" class="icon" viewBox="0 0 1160 1024" version="1.1" xmlns="http://www.w3.org/2000/svg" p-id="6252" width="145" height="128" xmlns:xlink="http://www.w3.org/1999/xlink"><defs><style type="text/css"></style></defs><path d="M1040.861867 10.24H119.671467L13.312 336.2816v3.754667c0 64.989867 39.936 120.866133 96.8704 144.964266v528.759467H1050.282667V484.9664c56.968533-24.098133 96.8704-79.9744 96.8704-144.964267v-3.754666L1040.861867 10.274133z m-552.721067 955.733333V746.154667h184.1152v219.716266h-184.1152v0.136534z m513.6384 0h-280.951467v-267.605333h-281.122133v267.605333h-280.917333V496.981333a160.324267 160.324267 0 0 0 150.254933-73.386666 160.324267 160.324267 0 0 0 135.68 74.171733A160.221867 160.221867 0 0 0 580.266667 423.492267a160.324267 160.324267 0 0 0 135.68 74.1376 160.324267 160.324267 0 0 0 135.714133-74.1376 160.324267 160.324267 0 0 0 150.254933 73.386666V965.973333h-0.136533z m-14.4384-516.096c-61.5424 0-111.4112-49.152-111.4112-109.8752h-48.4352c0 60.689067-49.834667 109.909333-111.4112 109.909334-61.5424 0-111.4112-49.220267-111.4112-109.909334h-48.4352c0 60.689067-49.834667 109.909333-111.4112 109.909334-61.5424 0-111.4112-49.220267-111.4112-109.909334H285.013333c0 60.689067-49.8688 109.909333-111.4112 109.909334-60.381867 0-109.4656-47.274667-111.4112-106.3936L155.374933 58.026667h850.466134l93.184 285.4912c-2.2528 59.118933-51.438933 106.359467-111.684267 106.359466z" fill="#1296db" p-id="6253"></path><path d="M115.712 301.738667h-0.648533l1.024-2.730667c1.604267-9.728 5.0176-18.773333 10.001066-26.965333l66.6624-180.6336h775.304534l70.4512 197.358933c4.608 9.693867 7.099733 20.5824 7.099733 31.9488 0 42.1888-34.645333 76.4928-77.550933 76.4928-42.8032 0-77.550933-34.133333-77.550934-76.458667 0-6.621867 0.785067-12.970667 2.491734-19.182933h-100.1472c0.4096 3.106133 0.682667 6.3488 0.682666 9.557333 0 42.222933-34.679467 76.526933-77.585066 76.526934-42.769067 0-77.550933-34.167467-77.550934-76.4928 0-3.242667 0.273067-6.485333 0.682667-9.557334H521.557333c0.4096 3.072 0.682667 6.314667 0.682667 9.557334 0 42.1888-34.645333 76.458667-77.550933 76.458666-42.939733 0-77.585067-34.133333-77.585067-76.458666 0-3.242667 0.273067-6.485333 0.682667-9.557334H269.653333c0.375467 3.072 0.682667 6.314667 0.682667 9.557334 0 42.1888-34.679467 76.458667-77.585067 76.458666-42.9056 0-77.550933-34.133333-77.550933-76.458666a57.821867 57.821867 0 0 1 0.512-9.454934z" fill="#1296db" p-id="6254"></path></svg>