<?xml version="1.0" standalone="no"?><!DOCTYPE svg PUBLIC "-//W3C//DTD SVG 1.1//EN" "http://www.w3.org/Graphics/SVG/1.1/DTD/svg11.dtd"><svg t="1627355838403" class="icon" viewBox="0 0 1024 1024" version="1.1" xmlns="http://www.w3.org/2000/svg" p-id="7453" width="128" height="128" xmlns:xlink="http://www.w3.org/1999/xlink"><defs><style type="text/css">@font-face { font-family: "feedback-iconfont"; src: url("//at.alicdn.com/t/font_1031158_1uhr8ri0pk5.eot?#iefix") format("embedded-opentype"), url("//at.alicdn.com/t/font_1031158_1uhr8ri0pk5.woff2") format("woff2"), url("//at.alicdn.com/t/font_1031158_1uhr8ri0pk5.woff") format("woff"), url("//at.alicdn.com/t/font_1031158_1uhr8ri0pk5.ttf") format("truetype"), url("//at.alicdn.com/t/font_1031158_1uhr8ri0pk5.svg#iconfont") format("svg"); }
</style></defs><path d="M87.04 399.36a30.72 30.72 0 0 0-30.72 30.72v409.6a30.72 30.72 0 1 0 61.44 0V430.08a30.72 30.72 0 0 0-30.72-30.72z" p-id="7454" fill="#1296db"></path><path d="M377.77408 103.50592a30.63808 30.63808 0 0 0-21.72416 8.99584L66.42176 402.13504a30.72 30.72 0 1 0 43.44832 43.4432l289.63328-289.63328a30.72 30.72 0 0 0-21.72928-52.43904zM646.22592 108.62592a30.72 30.72 0 0 0-21.72416 52.43904l289.63328 289.63328a30.6176 30.6176 0 0 0 21.72416 8.99584 30.72 30.72 0 0 0 21.72416-52.43904l-289.63328-289.63328a30.64832 30.64832 0 0 0-21.72416-8.99584zM291.84 506.88a30.72 30.72 0 0 0-30.72 30.72v302.08a30.72 30.72 0 1 0 61.44 0v-302.08a30.72 30.72 0 0 0-30.72-30.72zM732.16 506.88a30.72 30.72 0 0 0-30.72 30.72v302.08a30.72 30.72 0 1 0 61.44 0v-302.08a30.72 30.72 0 0 0-30.72-30.72zM645.12 803.84H378.88a30.72 30.72 0 1 0 0 61.44h266.24a30.72 30.72 0 1 0 0-61.44zM645.12 665.6H378.88a30.72 30.72 0 1 0 0 61.44h266.24a30.72 30.72 0 1 0 0-61.44zM609.28 343.04H435.2a30.72 30.72 0 1 0 0 61.44h174.08a30.72 30.72 0 1 0 0-61.44z" p-id="7455" fill="#1296db"></path><path d="M732.16 506.88H291.84a30.72 30.72 0 1 0 0 61.44h440.32a30.72 30.72 0 1 0 0-61.44zM936.96 399.36a30.72 30.72 0 0 0-30.72 30.72v409.6a30.72 30.72 0 1 0 61.44 0V430.08a30.72 30.72 0 0 0-30.72-30.72zM640 102.4H378.88a30.72 30.72 0 1 0 0 61.44h261.12a30.72 30.72 0 1 0 0-61.44z" p-id="7456" fill="#1296db"></path><path d="M936.96 808.96h-204.8a30.72 30.72 0 1 0 0 61.44h204.8a30.72 30.72 0 1 0 0-61.44zM291.84 808.96H87.04a30.72 30.72 0 1 0 0 61.44h204.8a30.72 30.72 0 1 0 0-61.44z" p-id="7457" fill="#1296db"></path></svg>