<?xml version="1.0" standalone="no"?><!DOCTYPE svg PUBLIC "-//W3C//DTD SVG 1.1//EN" "http://www.w3.org/Graphics/SVG/1.1/DTD/svg11.dtd"><svg t="1627355654696" class="icon" viewBox="0 0 1024 1024" version="1.1" xmlns="http://www.w3.org/2000/svg" p-id="2546" width="128" height="128" xmlns:xlink="http://www.w3.org/1999/xlink"><defs><style type="text/css">@font-face { font-family: "feedback-iconfont"; src: url("//at.alicdn.com/t/font_1031158_1uhr8ri0pk5.eot?#iefix") format("embedded-opentype"), url("//at.alicdn.com/t/font_1031158_1uhr8ri0pk5.woff2") format("woff2"), url("//at.alicdn.com/t/font_1031158_1uhr8ri0pk5.woff") format("woff"), url("//at.alicdn.com/t/font_1031158_1uhr8ri0pk5.ttf") format("truetype"), url("//at.alicdn.com/t/font_1031158_1uhr8ri0pk5.svg#iconfont") format("svg"); }
</style></defs><path d="M931 611c14.763 0 26.758 11.848 27 26.554V847.27c0 59.985-48.07 108.746-107.762 109.715l-1.812 0.015H176.574c-59.922 0-108.592-48.161-109.56-107.916L67 847.27V638.633c0-14.911 12.088-27 27-27 14.763 0 26.758 11.848 26.996 26.554l0.004 0.446V847.27c0 30.482 24.397 55.23 54.655 55.723l0.919 0.007h671.852c30.374 0 55.076-24.444 55.567-54.808l0.007-0.922V638c0-14.912 12.088-27 27-27zM848.426 66c59.915 0 108.592 48.112 109.56 107.82l0.014 1.813V395.7c0 14.911-12.088 27-27 27-14.763 0-26.758-11.848-26.996-26.554L904 395.7V175.633c0-30.422-24.39-55.134-54.655-55.626l-0.919-0.007H176.574c-30.381 0-55.076 24.408-55.567 54.713l-0.007 0.92V397c0 14.912-12.088 27-27 27-14.763 0-26.758-11.848-27-26.554V175.633c0-59.939 48.077-108.65 107.762-109.618l1.812-0.015h671.852z" p-id="2547" fill="#1296db"></path><path d="M175 493c14.912 0 27 12.088 27 27s-12.088 27-27 27H93c-14.912 0-27-12.088-27-27s12.088-27 27-27h82z m758 0c14.912 0 27 12.088 27 27s-12.088 27-27 27h-82c-14.912 0-27-12.088-27-27s12.088-27 27-27h82z" p-id="2548" fill="#1296db"></path><path d="M244.406 244.588c10.236-10.637 27.09-11.065 37.852-1.04l0.324 0.307 69.733 67.108c10.744 10.34 11.072 27.432 0.732 38.176-10.237 10.637-27.091 11.065-37.852 1.04l-0.325-0.307-69.732-67.108c-10.744-10.34-11.072-27.432-0.732-38.176zM244.406 387.588c10.236-10.637 27.09-11.065 37.852-1.04l0.324 0.307 69.733 67.108c10.744 10.34 11.072 27.432 0.732 38.176-10.237 10.637-27.091 11.065-37.852 1.04l-0.325-0.307-69.732-67.108c-10.744-10.34-11.072-27.432-0.732-38.176zM692.046 652.184c11.551-9.193 28.315-7.393 37.659 3.965l0.28 0.347 41.14 51.69c9.287 11.668 7.356 28.654-4.311 37.94-11.55 9.193-28.315 7.393-37.659-3.965l-0.28-0.347-41.14-51.69c-9.287-11.668-7.356-28.654 4.311-37.94zM504.048 654.966c10.131-10.942 27.214-11.599 38.156-1.468 10.832 10.03 11.585 26.873 1.769 37.826l-0.301 0.33-47.86 51.69c-10.131 10.942-27.214 11.599-38.156 1.468-10.832-10.03-11.585-26.873-1.768-37.826l0.3-0.33 47.86-51.69zM296.412 578.384c4.758-14.132 20.072-21.73 34.204-16.972 13.99 4.71 21.578 19.767 17.111 33.78l-0.139 0.424-58.385 173.396c-4.759 14.133-20.073 21.731-34.205 16.973-13.99-4.711-21.578-19.767-17.111-33.78l0.139-0.425 58.386-173.396z" p-id="2549" fill="#1296db"></path><path d="M762.453 235.916c14.912 0 27 12.088 27 27 0 14.762-11.848 26.758-26.554 26.996l-0.446 0.004H452.678c-9.28 0-16.825 7.437-16.997 16.677l-0.003 0.323V627c0 60.859-22.505 112.543-66.813 153.274-10.978 10.091-28.058 9.373-38.15-1.605-10.092-10.978-9.373-28.058 1.605-38.15 32.808-30.16 49.032-66.967 49.353-112.147l0.005-1.372V306.916c0-38.82 31.155-70.364 69.826-70.99l1.174-0.01h309.775z" p-id="2550" fill="#1296db"></path><path d="M695 342c30.376 0 55 24.624 55 55v154c0 30.376-24.624 55-55 55H541c-30.376 0-55-24.624-55-55V397c0-30.376 24.624-55 55-55h154z m0 54H541a1 1 0 0 0-0.993 0.883L540 397v154a1 1 0 0 0 0.883 0.993L541 552h154a1 1 0 0 0 0.993-0.883L696 551V397a1 1 0 0 0-0.883-0.993L695 396z" p-id="2551" fill="#1296db"></path><path d="M716 447v54H521v-54h195z m-64.474-204.33l44.235 30.974-78.007 111.405-44.234-30.974 78.006-111.404z" p-id="2552" fill="#1296db"></path><path d="M622.724 560c14.763 0 26.758 11.848 26.996 26.554l0.004 0.446v119.396c0 44.288-35.543 80.274-79.66 80.99l-1.34 0.01h-8.144c-14.912 0-27-12.088-27-27 0-14.762 11.848-26.758 26.554-26.996l0.446-0.004h8.144c14.763 0 26.758-11.847 26.996-26.553l0.004-0.447V587c0-14.912 12.088-27 27-27z" p-id="2553" fill="#1296db"></path></svg>